<?xml version="1.0" standalone="no"?>
<!DOCTYPE svg PUBLIC "-//W3C//DTD SVG 20010904//EN"
 "http://www.w3.org/TR/2001/REC-SVG-20010904/DTD/svg10.dtd">
<svg version="1.0" xmlns="http://www.w3.org/2000/svg"
 width="512.000000pt" height="512.000000pt" viewBox="0 0 512.000000 512.000000"
 preserveAspectRatio="xMidYMid meet">

<g transform="translate(0.000000,512.000000) scale(0.100000,-0.100000)"
fill="#000000" stroke="none">
<path d="M3820 5109 c-212 -41 -399 -218 -455 -429 -8 -30 -15 -67 -15 -81 0
-14 -9 -34 -20 -44 -30 -27 -27 -88 5 -113 17 -14 25 -30 25 -51 0 -28 -3 -31
-29 -31 -67 0 -121 -41 -121 -91 0 -63 45 -99 125 -99 l45 0 0 -380 0 -380
-1460 0 -1460 0 0 -1705 0 -1705 1960 0 c1078 0 1960 3 1960 6 0 3 -76 222
-168 487 -166 477 -168 483 -164 554 l4 72 76 3 77 3 3 72 3 73 74 0 75 0 0
65 0 65 55 0 55 0 0 130 0 130 31 0 c55 0 119 22 139 48 56 71 -12 152 -128
152 l-32 0 2 1153 3 1152 56 5 c76 7 118 40 119 96 0 47 -46 86 -110 92 -49 4
-50 5 -50 38 0 19 5 34 10 34 20 0 50 41 50 69 0 15 -8 39 -19 52 -10 13 -22
46 -26 74 -18 122 -86 247 -187 340 -132 122 -331 179 -508 144z m363 -153
c58 -24 82 -60 82 -123 0 -50 -3 -57 -36 -88 -49 -44 -103 -53 -163 -26 -74
32 -105 105 -72 169 36 70 117 99 189 68z m-83 -1271 l0 -215 -160 0 -160 0 0
215 0 215 160 0 160 0 0 -215z m-830 -1915 l0 -70 -1345 0 -1345 0 0 70 0 70
1345 0 1345 0 0 -70z m1090 0 l0 -70 -445 0 -445 0 0 70 0 70 445 0 445 0 0
-70z"/>
</g>
</svg>
